<?xml version="1.0" encoding="UTF-8" standalone="no"?>
<!-- Created with Inkscape (http://www.inkscape.org/) -->

<svg
   width="69.904396mm"
   height="33.803543mm"
   viewBox="0 0 69.904396 33.803543"
   version="1.1"
   id="svg1"
   xmlns="http://www.w3.org/2000/svg"
   xmlns:svg="http://www.w3.org/2000/svg">
  <defs
     id="defs1" />
  <g
     id="layer1"
     style="display:inline"
     transform="translate(-275.76868,-46.772167)">
    <path
       style="display:inline;fill:#000000;stroke-width:0.182721"
       d="m 112.51217,43.116898 h -6.73744 a 10.7626,10.7626 135 0 0 -10.762603,10.7626 l 0,2.778772 c 0,0 8.705223,2.93274 8.705223,9.298585 h -1.77845 c -3.864077,0 -6.926773,-4.77703 -6.926773,-4.77703 l -1e-6,2.858126 a 12.882443,12.882443 44.999912 0 0 12.882484,12.882446 l 4.49792,-1.5e-5 0.0561,-8.555491 c 0,0 0.36116,-5.060013 -2.13479,-7.770297 -2.49595,-2.710284 -5.20362,-4.286457 -5.20362,-4.286457 l 7.40191,0.02025 z"
       id="path4-3-3-5-1"
       transform="translate(180.75656,3.6552679)" />
    <path
       id="rect5-2-3-1-8"
       style="display:inline;fill:#000000;stroke-width:0.264583"
       d="m 91.842229,39.011402 c -13.602459,0 -19.715147,8.96635 -19.715147,21.425576 l -0.09578,27.521835 h 7.485071 v -13.68983 c -2.85e-4,-1.352442 1.095939,-2.449 2.448381,-2.449129 h 5.935377 c 1.423208,1.42e-4 2.580021,1.147936 2.591303,2.571099 l 0.109998,13.639695 6.596859,0.0202 V 63.484734 39.011402 Z M 90.491393,57.84644 v 8.58355 c -2.370012,-1.53e-4 -4.291248,-1.921389 -4.291401,-4.291401 -2.61e-4,-2.370304 1.921097,-4.291996 4.291401,-4.292149 z"
       transform="matrix(0.69060047,0,0,0.69060047,244.88316,19.831046)" />
    <path
       id="rect5-2-3-1-2-4"
       style="display:inline;fill:#000000;stroke-width:0.182721"
       d="m 142.29889,43.116898 h 8.37787 14.23976 l -2.8626,7.842333 -7.88088,0.0113 v 21.139724 c 2.11667,0.696414 3.99528,-2.158347 3.99528,-2.158347 a 7.9892605,7.9892605 116.73722 0 1 -3.20932,6.370708 l -0.78588,0.597826 H 145.7952 V 50.970531 c 0,0 -2.67199,0.311674 -3.76608,-1.106203 -1.09409,-1.417877 -1.11035,-3.425841 -1.11035,-3.425841 v 7.391154 h -3.26724 a 5.0870108,5.0870108 44.879929 0 1 -5.08696,-5.06569 l -0.0237,-5.646983 z"
       transform="translate(180.75656,3.6552679)" />
    <path
       id="rect12-6"
       style="display:inline;fill:#000000;fill-opacity:1;stroke-width:0.182721"
       d="m 132.54087,76.920362 8.37787,2e-5 V 55.466998 l -2.20702,0 a 6.170854,6.170854 135 0 0 -6.17085,6.170854 z"
       transform="translate(180.75656,3.6552679)" />
  </g>
</svg>
